# xmcd CD database file
#
# Track frame offsets:
#	150
#	46275
#	75151
#	124652
#	142127
#	186378
#	215929
#	258530
#
# Disc length: 4437 seconds
#
# Revision: 0
# Processed by: cddbd v1.5.1PL2 Copyright (c) Steve Scherf et al.
# Submitted via: CDex 1.51
#
DISCID=78115308
DTITLE=Mauro Sereno - YOGA
DYEAR=2003
DGENRE=New Age
TTITLE0=SERENITY RAGA
TTITLE1=TAMPURA DANCE
TTITLE2=GAYATHRI MANTRA
TTITLE3=I WILL BE THINE ALWAYS
TTITLE4=VASUVEDAYA DANCE
TTITLE5=ORIENTAL SONG
TTITLE6=OM CHANT
TTITLE7=AUM
EXTD=YEAR: 2003
EXTT0=
EXTT1=
EXTT2=
EXTT3=
EXTT4=
EXTT5=
EXTT6=
EXTT7=
PLAYORDER=
